<svg xmlns="http://www.w3.org/2000/svg" version="1.0" width="844.000000pt" height="348.000000pt" viewBox="0 0 844.000000 348.000000" preserveAspectRatio="xMidYMid meet">

<g transform="translate(0.000000,348.000000) scale(0.100000,-0.100000)" fill="#000000" stroke="none">
<path d="M1688 2128 c-48 -95 -85 -161 -349 -626 -33 -57 -59 -107 -59 -112 0 -6 -4 -10 -8 -10 -8 0 -32 -43 -32 -55 0 -3 74 -5 164 -5 l164 0 29 38 c16 20 41 56 56 80 29 45 37 58 134 237 34 61 72 130 87 155 14 25 26 54 26 66 0 11 -30 70 -66 130 -37 60 -73 124 -80 142 -8 17 -18 32 -22 32 -4 0 -24 -33 -44 -72z"/>
<path d="M2696 2023 c-3 -8 -6 -128 -6 -266 0 -181 4 -259 13 -277 13 -26 47 -39 85 -32 30 6 28 30 -4 38 -14 4 -30 17 -35 32 -5 14 -9 120 -9 236 2 290 3 273 -19 279 -12 3 -22 -1 -25 -10z"/>
<path d="M4115 2017 c-3 -12 -4 -143 -3 -292 l3 -270 27 -3 27 -3 3 77 c3 76 4 77 41 108 36 29 39 30 65 14 17 -10 45 -50 73 -104 42 -81 49 -89 78 -92 l32 -3 -37 73 c-23 47 -55 91 -89 123 l-53 50 79 68 c77 66 93 92 65 103 -27 11 -85 -28 -161 -107 -41 -43 -80 -79 -85 -79 -6 0 -11 70 -12 171 -3 168 -4 172 -25 180 -19 7 -24 4 -28 -14z"/>
<path d="M4506 2021 c-8 -13 -6 -467 2 -521 8 -50 31 -63 62 -35 18 16 22 16 66 1 98 -33 175 -14 227 55 64 87 24 283 -66 321 -43 18 -119 15 -151 -5 -14 -9 -29 -17 -34 -17 -5 0 -10 44 -11 97 -1 53 -4 100 -7 105 -7 11 -81 10 -88 -1z m238 -282 c46 -36 51 -124 10 -170 -22 -24 -99 -26 -132 -3 -19 13 -22 24 -22 77 0 68 3 74 40 99 34 23 72 22 104 -3z"/>
<path d="M5430 2014 c-16 -19 -17 -71 -2 -86 6 -6 26 -11 44 -10 57 1 81 55 46 100 -15 17 -73 15 -88 -4z"/>
<path d="M1944 1878 c-68 -147 -219 -423 -276 -505 -16 -24 -26 -48 -23 -53 8 -13 182 -13 190 0 4 6 -5 24 -19 41 -14 17 -29 43 -32 57 -3 15 -10 37 -15 50 -29 74 13 37 81 -70 l51 -78 182 -1 c203 -2 228 -1 234 5 5 4 -110 227 -139 268 -10 14 -18 28 -18 31 0 3 -28 52 -61 109 -34 56 -72 121 -84 143 -31 54 -47 54 -71 3z"/>
<path d="M2940 1848 c-53 -28 -90 -72 -72 -90 8 -8 18 -6 38 8 65 46 81 54 111 54 67 0 100 -32 91 -91 -2 -17 -10 -25 -28 -27 -146 -14 -230 -66 -230 -141 0 -69 56 -113 142 -113 37 1 61 8 89 27 l39 25 10 -26 c6 -14 16 -24 23 -21 17 6 13 316 -5 353 -30 62 -130 81 -208 42z m172 -200 c10 -28 0 -90 -18 -109 -40 -44 -111 -62 -153 -39 -10 5 -24 23 -31 40 -19 46 5 75 82 99 73 23 114 26 120 9z"/>
<path d="M3404 1853 c-16 -8 -39 -28 -50 -44 -24 -37 -32 -37 -36 2 -3 29 -30 61 -41 49 -3 -3 -8 -134 -12 -292 l-7 -288 32 0 32 0 -5 126 -4 125 36 -34 c85 -82 215 -65 268 36 25 49 24 200 -2 252 -39 77 -132 108 -211 68z m105 -37 c48 -25 66 -62 77 -156 11 -93 -69 -181 -150 -166 -130 25 -159 217 -46 304 46 35 76 40 119 18z"/>
<path d="M3773 1854 c-35 -15 -63 -49 -63 -76 0 -24 5 -23 44 7 40 30 105 42 145 25 33 -13 64 -68 59 -103 -3 -20 -9 -22 -78 -23 -88 -2 -136 -20 -167 -63 -44 -58 -17 -138 55 -168 39 -16 77 -11 140 20 l44 21 18 -23 c11 -15 23 -22 33 -18 14 5 15 25 10 154 -7 178 -17 208 -83 241 -50 25 -109 27 -157 6z m175 -227 c6 -5 12 -26 12 -47 0 -34 -4 -39 -49 -63 -65 -36 -113 -36 -141 0 -42 53 -7 106 80 121 48 9 77 5 98 -11z"/>
<path d="M5085 1860 c-22 -3 -49 -11 -61 -18 -42 -23 -70 -91 -43 -107 5 -4 24 0 42 8 81 38 159 29 178 -21 12 -32 -1 -48 -29 -33 -51 27 -175 -6 -207 -56 -51 -77 24 -185 128 -185 23 0 77 3 120 7 100 10 102 13 102 171 0 111 -2 124 -24 156 -41 60 -122 90 -206 78z m123 -256 c5 -32 -44 -84 -78 -84 -34 0 -80 35 -80 61 0 27 53 49 110 46 37 -2 46 -6 48 -23z"/>
<path d="M5899 1798 c-1 -149 -8 -229 -19 -243 -16 -19 -100 -20 -126 -1 -17 13 -20 31 -24 153 l-5 138 -45 0 -45 0 -1 -140 c-1 -77 3 -154 7 -172 20 -71 121 -106 219 -77 39 11 55 12 65 4 8 -6 26 -10 42 -8 l28 3 0 199 0 200 -47 3 -48 4 -1 -63z"/>
<path d="M5420 1616 l0 -236 -26 -16 c-33 -22 -58 -70 -42 -80 18 -11 86 -5 116 10 15 8 35 30 45 48 16 31 18 58 15 269 l-3 234 -52 3 -53 3 0 -235z"/>
</g>
</svg>